<svg width="20" height="20" viewBox="0 0 20 20" fill="none" xmlns="http://www.w3.org/2000/svg">
<path d="M10.4399 0.4375C8.54866 0.4375 6.69985 0.998331 5.12731 2.04907C3.55476 3.09981 2.32911 4.59327 1.60535 6.34059C0.881585 8.08791 0.692215 10.0106 1.06119 11.8656C1.43016 13.7205 2.3409 15.4244 3.67824 16.7617C5.01558 18.0991 6.71945 19.0098 8.57439 19.3788C10.4293 19.7477 12.352 19.5584 14.0994 18.8346C15.8467 18.1108 17.3401 16.8852 18.3909 15.3126C19.4416 13.7401 20.0024 11.8913 20.0024 10C19.9995 7.46478 18.991 5.03425 17.1984 3.24158C15.4057 1.44891 12.9752 0.440477 10.4399 0.4375ZM10.4399 18.4375C8.77117 18.4375 7.13986 17.9426 5.75232 17.0155C4.36478 16.0884 3.28333 14.7706 2.64471 13.2289C2.0061 11.6871 1.83901 9.99064 2.16457 8.35393C2.49013 6.71721 3.29373 5.21379 4.47373 4.03379C5.65374 2.85378 7.15716 2.05019 8.79387 1.72462C10.4306 1.39906 12.1271 1.56615 13.6688 2.20477C15.2106 2.84338 16.5283 3.92484 17.4555 5.31238C18.3826 6.69992 18.8774 8.33122 18.8774 10C18.875 12.237 17.9852 14.3817 16.4034 15.9635C14.8216 17.5453 12.6769 18.435 10.4399 18.4375ZM16.2524 10C16.2524 10.1492 16.1932 10.2923 16.0877 10.3977C15.9822 10.5032 15.8391 10.5625 15.6899 10.5625H10.4399C10.2908 10.5625 10.1477 10.5032 10.0422 10.3977C9.93671 10.2923 9.87745 10.1492 9.87745 10V4.75C9.87745 4.60082 9.93671 4.45774 10.0422 4.35225C10.1477 4.24676 10.2908 4.1875 10.4399 4.1875C10.5891 4.1875 10.7322 4.24676 10.8377 4.35225C10.9432 4.45774 11.0024 4.60082 11.0024 4.75V9.4375H15.6899C15.8391 9.4375 15.9822 9.49676 16.0877 9.60225C16.1932 9.70774 16.2524 9.85082 16.2524 10Z" fill="#404040"/>
</svg>
